<svg id="icon_lock" xmlns="http://www.w3.org/2000/svg" viewBox="0 0 100 100"><path d="M44.431,58.228l-5.8-2.175a2.82,2.82,0,0,1-1.829-2.64V47.971a1.221,1.221,0,0,1,1.391-1.209l8.281,1.16a25.421,25.421,0,0,0,7.056,0l8.281-1.16A1.221,1.221,0,0,1,63.2,47.971v5.442a2.82,2.82,0,0,1-1.829,2.64l-5.8,2.175A1.8,1.8,0,0,0,54.4,59.915V74.777a1.4,1.4,0,0,0,1.676,1.374L67.134,73.94A6.054,6.054,0,0,0,72,68V47.094c0-11.929-9.276-22.089-21.2-22.513A22,22,0,0,0,28,46.567V68a6.054,6.054,0,0,0,4.866,5.936l11.058,2.211A1.4,1.4,0,0,0,45.6,74.777V59.915A1.8,1.8,0,0,0,44.431,58.228Z"/></svg>