<svg id="icon_lock" xmlns="http://www.w3.org/2000/svg" viewBox="0 0 100 100"><defs><style>.cls-1{fill:none;}</style></defs><path class="cls-1" d="M50,42V30.282a1,1,0,0,0-1.768-.641L32.633,48.36A1,1,0,0,0,33.4,50H42a8,8,0,0,1,8,8V69.718a1,1,0,0,0,1.768.641l15.6-18.719A1,1,0,0,0,66.6,50H58A8,8,0,0,1,50,42Z"/><path d="M75.477,48.72,51.536,19.99a2,2,0,0,0-3.072,0L24.523,48.72a2,2,0,0,0,0,2.56L48.464,80.01a2,2,0,0,0,3.072,0L75.477,51.28A2,2,0,0,0,75.477,48.72ZM50,69.718V58a8,8,0,0,0-8-8H33.4a1,1,0,0,1-.769-1.64l15.6-18.719A1,1,0,0,1,50,30.282V42a8,8,0,0,0,8,8h8.6a1,1,0,0,1,.769,1.64l-15.6,18.719A1,1,0,0,1,50,69.718Z"/></svg>