<svg id="icon_lock" xmlns="http://www.w3.org/2000/svg" viewBox="0 0 100 100"><path d="M23.565,43.924a45.985,45.985,0,0,1,6.241,6.244,1.288,1.288,0,0,0,2.294-.8V33a3,3,0,0,1,3-3h0a3,3,0,0,1,3,3V45a2,2,0,0,0,2,2h0a2,2,0,0,0,2-2V28a3,3,0,0,1,3-3h0a3,3,0,0,1,3,3V45a2,2,0,0,0,2,2h0a2,2,0,0,0,2-2V28a3,3,0,0,1,3-3h0a3,3,0,0,1,3,3V45a2,2,0,0,0,2,2h0a2,2,0,0,0,2-2V36.667a3,3,0,0,1,3-3h0a3,3,0,0,1,3,3V61a12,12,0,0,1-12,12H42.491a12.088,12.088,0,0,1-11.5-8.578c-1.364-4.36-4.291-9.86-10.5-15.238a3.016,3.016,0,0,1-.45-4.11l.479-.628A2.078,2.078,0,0,1,23.565,43.924Z"/></svg>