<svg id="icon_lock" xmlns="http://www.w3.org/2000/svg" viewBox="0 0 100 100"><path d="M76.534,43.924a46.032,46.032,0,0,0-6.24,6.244,1.288,1.288,0,0,1-2.294-.8V33a3,3,0,0,0-3-3h0a3,3,0,0,0-3,3V45a2,2,0,0,1-2,2h0a2,2,0,0,1-2-2V28a3,3,0,0,0-3-3h0a3,3,0,0,0-3,3V45a2,2,0,0,1-2,2h0a2,2,0,0,1-2-2V28a3,3,0,0,0-3-3h0a3,3,0,0,0-3,3V45a2,2,0,0,1-2,2h0a2,2,0,0,1-2-2V36.667a3,3,0,0,0-3-3h0a3,3,0,0,0-3,3V61A12,12,0,0,0,44,73H57.609a12.088,12.088,0,0,0,11.5-8.578c1.364-4.36,4.291-9.86,10.5-15.238a3.015,3.015,0,0,0,.449-4.11l-.478-.628A2.079,2.079,0,0,0,76.534,43.924Z"/></svg>