<svg id="icon_lock" xmlns="http://www.w3.org/2000/svg" viewBox="0 0 100 100"><path d="M25,30A14.987,14.987,0,0,0,10.554,41.016,1.992,1.992,0,0,0,11.607,43.3l11.411,5.706a2,2,0,0,0,2.8-1.183A43.3,43.3,0,0,0,28,35V32a2,2,0,0,0-2-2Z"/><path d="M75,30H74a2,2,0,0,0-2,2v3a43.3,43.3,0,0,0,2.182,12.826,2,2,0,0,0,2.8,1.183L88.393,43.3a1.992,1.992,0,0,0,1.053-2.287A14.987,14.987,0,0,0,75,30Z"/><path d="M69.383,74.058A101.75,101.75,0,0,0,50,72.333a101.758,101.758,0,0,0-19.383,1.725,1.945,1.945,0,0,0-1.506,2.387l.446,1.783A2.338,2.338,0,0,0,31.826,80H68.174a2.338,2.338,0,0,0,2.269-1.772l.446-1.783A1.945,1.945,0,0,0,69.383,74.058Z"/><path d="M68,35V32a2,2,0,0,0-2-2H61.857a1.992,1.992,0,0,0-1.988,1.622,10,10,0,0,1-19.738,0A1.992,1.992,0,0,0,38.143,30H34a2,2,0,0,0-2,2v3c0,8.767-3.2,17.409-6.042,23.355a5.748,5.748,0,0,0-.4,3.881L27.1,68.381a2.356,2.356,0,0,0,2.743,1.737A105.961,105.961,0,0,1,50,68.333a105.961,105.961,0,0,1,20.162,1.785,2.356,2.356,0,0,0,2.743-1.737l1.536-6.145a5.748,5.748,0,0,0-.4-3.881C71.2,52.409,68,43.767,68,35Z"/></svg>