<svg id="icon_character" xmlns="http://www.w3.org/2000/svg" viewBox="0 0 100 100">
    <path d="M40,20A10,10,0,1,1,50,30,10,10,0,0,1,40,20ZM60,36H40C26.073,36,21.009,47.343,21,54.98a3.987,3.987,0,0,0,3.976,4.007H25a4.011,4.011,0,0,0,4-3.964c.017-1.364.374-6.757,4.765-9.459A1.473,1.473,0,0,1,36,46.826v38a4.116,4.116,0,0,0,3.607,4.153A4,4,0,0,0,44,85V70.889A1.889,1.889,0,0,1,45.889,69h8.222A1.889,1.889,0,0,1,56,70.889V84.828a4.116,4.116,0,0,0,3.607,4.153A4,4,0,0,0,64,85V46.826a1.473,1.473,0,0,1,2.235-1.262c4.388,2.7,4.748,8.087,4.765,9.457a4,4,0,0,0,4.736,3.913A4.064,4.064,0,0,0,79,54.879C78.946,47.243,73.867,36,60,36Z" />
</svg>