<?xml version="1.0" encoding="iso-8859-1"?>
<!-- Generator: Adobe Illustrator 25.2.0, SVG Export Plug-In . SVG Version: 6.00 Build 0)  -->
<svg version="1.1" xmlns="http://www.w3.org/2000/svg" xmlns:xlink="http://www.w3.org/1999/xlink" x="0px" y="0px"
	 viewBox="0 0 100 100" style="enable-background:new 0 0 100 100;" xml:space="preserve">
<g id="icon_x5F_collection">
	<path d="M86.081,36.376L75.59,75.529c-0.429,1.597-2.075,2.55-3.675,2.122l-5.085-1.363c-0.535-0.143-0.754-0.814-0.373-1.215
		c1.191-1.254,1.924-2.944,1.924-4.806V30.386c0-0.415,0.181-0.809,0.495-1.08l0,0c0.358-0.308,0.845-0.42,1.301-0.298l13.783,3.693
		C85.557,33.13,86.509,34.778,86.081,36.376z M56.056,67.05c0.482,1.798,0.211,3.621-0.615,5.14
		c-0.264,0.486,0.121,1.077,0.675,1.077h5.265c1.657,0,3-1.343,3-3V29.733c0-1.657-1.343-3-3-3H47.085
		c-0.475,0-0.919,0.24-1.178,0.638v0c-0.218,0.334-0.283,0.746-0.18,1.132L56.056,67.05z M50.071,71.76
		c1.598-0.429,2.549-2.077,2.122-3.675L41.701,28.932c-0.359-1.339-1.574-2.224-2.898-2.224c-0.256,0-0.517,0.033-0.776,0.103
		l-21.986,5.891c-0.774,0.208-1.421,0.704-1.822,1.398c-0.4,0.694-0.507,1.502-0.3,2.276l10.491,39.153
		c0.429,1.599,2.078,2.551,3.675,2.122L50.071,71.76z"/>
</g>
<g>
</g>
</svg>
