<svg id="icon_equip" xmlns="http://www.w3.org/2000/svg" viewBox="0 0 100 100">
    <path d="M60.331,59.5a1.665,1.665,0,0,1-1.385,2.588H54.875a.875.875,0,0,0-.875.875V84a2,2,0,0,1-2,2H48a2,2,0,0,1-2-2V62.959a.875.875,0,0,0-.875-.875H41.054A1.665,1.665,0,0,1,39.669,59.5l8.946-13.419a1.665,1.665,0,0,1,2.77,0ZM73.556,23H26.444a4,4,0,0,0-4,4V74.111a4,4,0,0,0,4,4H36a2,2,0,0,0,2-2v-4a2,2,0,0,0-2-2H31.444a1,1,0,0,1-1-1V32a1,1,0,0,1,1-1H68.556a1,1,0,0,1,1,1V69.111a1,1,0,0,1-1,1H64a2,2,0,0,0-2,2v4a2,2,0,0,0,2,2h9.556a4,4,0,0,0,4-4V27A4,4,0,0,0,73.556,23Z" />
</svg>