<?xml version="1.0" encoding="iso-8859-1"?>
<!-- Generator: Adobe Illustrator 25.2.0, SVG Export Plug-In . SVG Version: 6.00 Build 0)  -->
<svg version="1.1" xmlns="http://www.w3.org/2000/svg" xmlns:xlink="http://www.w3.org/1999/xlink" x="0px" y="0px"
	 viewBox="0 0 100 100" style="enable-background:new 0 0 100 100;" xml:space="preserve">
<g id="icon_x5F_close">
	<path d="M76.414,26.414l-2.828-2.829c-0.781-0.781-2.047-0.781-2.829,0L50,44.343L29.243,23.586c-0.781-0.781-2.047-0.781-2.828,0
		l-2.829,2.829c-0.781,0.781-0.781,2.047,0,2.828L44.343,50L23.586,70.758c-0.781,0.781-0.781,2.048,0,2.829l2.829,2.828
		c0.781,0.781,2.047,0.781,2.828,0L50,55.657l20.758,20.757c0.781,0.781,2.047,0.781,2.828,0l2.828-2.828
		c0.781-0.781,0.781-2.047,0-2.828L55.657,50l20.757-20.757C77.195,28.462,77.195,27.195,76.414,26.414z"/>
</g>
<g>
</g>
</svg>
