<?xml version="1.0" encoding="iso-8859-1"?>
<!-- Generator: Adobe Illustrator 25.2.0, SVG Export Plug-In . SVG Version: 6.00 Build 0)  -->
<svg version="1.1" xmlns="http://www.w3.org/2000/svg" xmlns:xlink="http://www.w3.org/1999/xlink" x="0px" y="0px"
	 viewBox="0 0 100 100" style="enable-background:new 0 0 100 100;" xml:space="preserve">
<g id="icon_x5F_burger">
	<path d="M73,34H27c-1.105,0-2-0.895-2-2v-4c0-1.105,0.895-2,2-2h46c1.105,0,2,0.895,2,2v4C75,33.105,74.105,34,73,34z M75,52v-4
		c0-1.105-0.895-2-2-2H27c-1.105,0-2,0.895-2,2v4c0,1.105,0.895,2,2,2h46C74.105,54,75,53.105,75,52z M75,72v-4c0-1.105-0.895-2-2-2
		H27c-1.105,0-2,0.895-2,2v4c0,1.105,0.895,2,2,2h46C74.105,74,75,73.105,75,72z"/>
</g>
<g>
</g>
</svg>